<svg width="20" height="20" viewBox="0 0 20 20" fill="none" xmlns="http://www.w3.org/2000/svg">
<path d="M9.75003 20C11.1297 20 12.2489 18.8809 12.2489 17.5H7.2512C7.2512 18.8809 8.37034 20 9.75003 20ZM18.1637 14.152C17.409 13.341 15.9969 12.1211 15.9969 8.125C15.9969 5.08984 13.8688 2.66016 10.9992 2.06406V1.25C10.9992 0.559766 10.4399 0 9.75003 0C9.06018 0 8.50081 0.559766 8.50081 1.25V2.06406C5.63128 2.66016 3.50315 5.08984 3.50315 8.125C3.50315 12.1211 2.09104 13.341 1.33636 14.152C1.10198 14.4039 0.998074 14.7051 1.00003 15C1.00432 15.6406 1.50706 16.25 2.25393 16.25H17.2461C17.993 16.25 18.4961 15.6406 18.5 15C18.502 14.7051 18.3981 14.4035 18.1637 14.152Z" fill="white"/>
</svg>
