<svg width="18" height="20" viewBox="0 0 18 20" fill="none" xmlns="http://www.w3.org/2000/svg">
<path d="M17.3571 1.20001H12.5357L12.158 0.498756C12.078 0.348837 11.9548 0.222728 11.8022 0.134616C11.6496 0.0465044 11.4736 -0.000113549 11.2942 6.57477e-06H6.70179C6.52274 -0.00063582 6.34712 0.0458083 6.19506 0.134018C6.04299 0.222227 5.92062 0.348634 5.84196 0.498756L5.46429 1.20001H0.642857C0.472361 1.20001 0.308848 1.26322 0.188289 1.37574C0.0677294 1.48826 0 1.64088 0 1.80001L0 3.00001C0 3.15914 0.0677294 3.31175 0.188289 3.42427C0.308848 3.53679 0.472361 3.60001 0.642857 3.60001H17.3571C17.5276 3.60001 17.6912 3.53679 17.8117 3.42427C17.9323 3.31175 18 3.15914 18 3.00001V1.80001C18 1.64088 17.9323 1.48826 17.8117 1.37574C17.6912 1.26322 17.5276 1.20001 17.3571 1.20001ZM2.1375 17.5125C2.16816 17.9695 2.38426 18.3984 2.74181 18.7119C3.09936 19.0254 3.57147 19.1999 4.06205 19.2H13.9379C14.4285 19.1999 14.9006 19.0254 15.2582 18.7119C15.6157 18.3984 15.8318 17.9695 15.8625 17.5125L16.7143 4.8H1.28571L2.1375 17.5125Z" fill="white"/>
</svg>
