<svg width="21" height="20" viewBox="0 0 21 20" fill="none" xmlns="http://www.w3.org/2000/svg">
<path d="M11.5642 14.9993H8.43874C7.91913 14.9993 7.5011 14.5812 7.5011 14.0616V7.49817H4.07482C3.3794 7.49817 3.03169 6.6582 3.52395 6.16594L9.46623 0.219759C9.75924 -0.0732529 10.2398 -0.0732529 10.5328 0.219759L16.479 6.16594C16.9712 6.6582 16.6235 7.49817 15.9281 7.49817H12.5018V14.0616C12.5018 14.5812 12.0838 14.9993 11.5642 14.9993ZM20.0029 14.6867V19.0624C20.0029 19.582 19.5849 20 19.0653 20H0.937637C0.41803 20 0 19.582 0 19.0624V14.6867C0 14.1671 0.41803 13.7491 0.937637 13.7491H6.25092V14.0616C6.25092 15.2688 7.23153 16.2495 8.43874 16.2495H11.5642C12.7714 16.2495 13.752 15.2688 13.752 14.0616V13.7491H19.0653C19.5849 13.7491 20.0029 14.1671 20.0029 14.6867ZM15.1585 18.1247C15.1585 17.695 14.8069 17.3434 14.3771 17.3434C13.9474 17.3434 13.5957 17.695 13.5957 18.1247C13.5957 18.5545 13.9474 18.9061 14.3771 18.9061C14.8069 18.9061 15.1585 18.5545 15.1585 18.1247ZM17.6588 18.1247C17.6588 17.695 17.3072 17.3434 16.8775 17.3434C16.4477 17.3434 16.0961 17.695 16.0961 18.1247C16.0961 18.5545 16.4477 18.9061 16.8775 18.9061C17.3072 18.9061 17.6588 18.5545 17.6588 18.1247Z" fill="#252525"/>
</svg>
