<svg width="28" height="20" viewBox="0 0 28 20" fill="none" xmlns="http://www.w3.org/2000/svg">
<path d="M23.52 8.91365C23.6994 8.44553 23.8 7.93365 23.8 7.3999C23.8 5.08115 21.9187 3.1999 19.6 3.1999C18.7381 3.1999 17.9331 3.4624 17.2681 3.90865C16.0562 1.80865 13.7944 0.399902 11.2 0.399902C7.3325 0.399902 4.2 3.5324 4.2 7.3999C4.2 7.51803 4.20437 7.63615 4.20875 7.75428C1.75875 8.61615 0 10.9524 0 13.6999C0 17.178 2.82187 19.9999 6.3 19.9999H22.4C25.4931 19.9999 28 17.493 28 14.3999C28 11.6918 26.075 9.4299 23.52 8.91365ZM17.2113 11.5999H14.35V16.4999C14.35 16.8849 14.035 17.1999 13.65 17.1999H11.55C11.165 17.1999 10.85 16.8849 10.85 16.4999V11.5999H7.98875C7.36313 11.5999 7.0525 10.8474 7.49438 10.4055L12.1056 5.79428C12.3769 5.52303 12.8231 5.52303 13.0944 5.79428L17.7056 10.4055C18.1475 10.8474 17.8325 11.5999 17.2113 11.5999Z" fill="white"/>
</svg>
