<svg width="208" height="208" viewBox="0 0 208 208" fill="none" xmlns="http://www.w3.org/2000/svg">
<path d="M103.654 50.4804C74.2468 50.4804 50.5267 74.2006 50.5267 103.608C50.5267 133.015 74.2468 156.736 103.654 156.736C133.062 156.736 156.782 133.015 156.782 103.608C156.782 74.2006 133.062 50.4804 103.654 50.4804ZM103.654 138.148C84.6504 138.148 69.1144 122.658 69.1144 103.608C69.1144 84.5579 84.6042 69.0682 103.654 69.0682C122.704 69.0682 138.194 84.5579 138.194 103.608C138.194 122.658 122.658 138.148 103.654 138.148ZM171.347 48.3072C171.347 55.1967 165.798 60.6991 158.955 60.6991C152.066 60.6991 146.563 55.1505 146.563 48.3072C146.563 41.464 152.112 35.9154 158.955 35.9154C165.798 35.9154 171.347 41.464 171.347 48.3072ZM206.534 60.884C205.748 44.2845 201.956 29.5808 189.796 17.4664C177.681 5.35206 162.978 1.56054 146.378 0.72825C129.27 -0.24275 77.9921 -0.24275 60.884 0.72825C44.3308 1.5143 29.6271 5.30582 17.4664 17.4202C5.30582 29.5346 1.56054 44.2383 0.72825 60.8378C-0.24275 77.9459 -0.24275 129.224 0.72825 146.332C1.5143 162.931 5.30582 177.635 17.4664 189.75C29.6271 201.864 44.2845 205.655 60.884 206.488C77.9921 207.459 129.27 207.459 146.378 206.488C162.978 205.702 177.681 201.91 189.796 189.75C201.91 177.635 205.702 162.931 206.534 146.332C207.505 129.224 207.505 77.9921 206.534 60.884ZM184.432 164.689C180.826 173.751 173.844 180.733 164.735 184.386C151.095 189.796 118.728 188.547 103.654 188.547C88.5806 188.547 56.1677 189.75 42.5737 184.386C33.5111 180.779 26.5291 173.797 22.8763 164.689C17.4664 151.048 18.7149 118.682 18.7149 103.608C18.7149 88.5344 17.5127 56.1215 22.8763 42.5275C26.4829 33.4648 33.4648 26.4829 42.5737 22.8301C56.214 17.4202 88.5806 18.6686 103.654 18.6686C118.728 18.6686 151.141 17.4664 164.735 22.8301C173.797 26.4366 180.779 33.4186 184.432 42.5275C189.842 56.1677 188.594 88.5344 188.594 103.608C188.594 118.682 189.842 151.095 184.432 164.689Z" fill="#F4CE68"/>
</svg>
