<svg width="312" height="312" viewBox="0 0 312 312" fill="none" xmlns="http://www.w3.org/2000/svg">
<path d="M277.854 0H33.3424C24.4995 0 16.0187 3.51286 9.76578 9.76578C3.51285 16.0187 0 24.4995 0 33.3424L0 277.854C0 286.697 3.51285 295.177 9.76578 301.43C16.0187 307.683 24.4995 311.196 33.3424 311.196H277.854C286.697 311.196 295.177 307.683 301.43 301.43C307.683 295.177 311.196 286.697 311.196 277.854V33.3424C311.196 24.4995 307.683 16.0187 301.43 9.76578C295.177 3.51286 286.697 0 277.854 0ZM266.469 213.51L256.049 258.661C255.52 260.956 254.228 263.005 252.385 264.472C250.542 265.939 248.256 266.739 245.901 266.74C134.759 266.74 44.4566 176.639 44.4566 65.2956C44.5393 62.962 45.3688 60.7166 46.823 58.8897C48.2773 57.0628 50.2796 55.7509 52.5352 55.147L97.6864 44.7275C98.4566 44.5646 99.2403 44.4739 100.027 44.4566C102.042 44.5583 103.993 45.1975 105.678 46.3078C107.362 47.4182 108.719 48.9592 109.606 50.7708L130.445 99.3952C130.956 100.706 131.24 102.094 131.286 103.501C131.116 106.585 129.745 109.48 127.465 111.565L101.146 133.099C117.093 166.899 144.297 194.103 178.097 210.05L199.631 183.731C201.716 181.451 204.611 180.08 207.696 179.91C209.102 179.956 210.49 180.24 211.801 180.751L260.425 201.59C262.238 202.476 263.78 203.833 264.89 205.517C266.001 207.202 266.639 209.154 266.74 211.169C266.726 211.956 266.635 212.74 266.469 213.51Z" fill="#F4CE68"/>
</svg>
