<svg width="27" height="22" viewBox="0 0 27 22" fill="none" xmlns="http://www.w3.org/2000/svg">
<path d="M26.6263 12.0084L17.6259 21.0089C16.8223 21.8125 15.4293 21.25 15.4293 20.0981V14.955H8.14326C7.43073 14.955 6.85748 14.3818 6.85748 13.6692V8.52611C6.85748 7.81357 7.43073 7.24033 8.14326 7.24033H15.4293V2.09722C15.4293 0.950735 16.8169 0.38285 17.6259 1.18646L26.6263 10.1869C27.1246 10.6905 27.1246 11.5048 26.6263 12.0084ZM10.2862 20.741V18.598C10.2862 18.2444 9.99692 17.9551 9.64334 17.9551H5.14311C4.19485 17.9551 3.42874 17.189 3.42874 16.2408V5.95455C3.42874 5.00629 4.19485 4.24018 5.14311 4.24018H9.64334C9.99692 4.24018 10.2862 3.95088 10.2862 3.59729V1.45433C10.2862 1.10074 9.99692 0.811442 9.64334 0.811442H5.14311C2.30369 0.811442 0 3.11513 0 5.95455V16.2408C0 19.0802 2.30369 21.3839 5.14311 21.3839H9.64334C9.99692 21.3839 10.2862 21.0946 10.2862 20.741Z" fill="white"/>
</svg>
