<svg width="86" height="86" viewBox="0 0 86 86" fill="none" xmlns="http://www.w3.org/2000/svg">
<path d="M83.1087 60.4515L64.3947 52.4312C63.5952 52.0905 62.7067 52.0187 61.8629 52.2266C61.0192 52.4346 60.2658 52.911 59.7161 53.5841L51.4285 63.7097C38.4218 57.5772 27.9544 47.1098 21.8219 34.1031L31.9475 25.8155C32.622 25.2669 33.0994 24.5135 33.3075 23.6693C33.5155 22.8251 33.4428 21.9362 33.1004 21.137L25.0801 2.42295C24.7044 1.56146 24.0398 0.85807 23.201 0.434085C22.3622 0.0101008 21.4017 -0.107907 20.4852 0.10041L3.10787 4.11056C2.22425 4.31461 1.43588 4.81213 0.871431 5.52194C0.306986 6.23174 -0.00020355 7.11191 1.01193e-07 8.01879C1.01193e-07 50.8773 34.7379 85.5484 77.5296 85.5484C78.4367 85.5489 79.3173 85.2419 80.0274 84.6774C80.7376 84.113 81.2353 83.3244 81.4395 82.4405L85.4496 65.0632C85.6566 64.1422 85.5361 63.1779 85.1088 62.3362C84.6816 61.4945 83.9743 60.828 83.1087 60.4515Z" fill="black"/>
</svg>
