<svg width="20" height="20" viewBox="0 0 20 20" fill="none" xmlns="http://www.w3.org/2000/svg">
<rect width="20" height="20" rx="2" fill="white"/>
<path d="M14.6071 4.75H11.6607L11.4299 4.31172C11.381 4.21802 11.3057 4.1392 11.2124 4.08413C11.1192 4.02907 11.0117 3.99993 10.902 4H8.09554C7.98612 3.9996 7.8788 4.02863 7.78587 4.08376C7.69294 4.13889 7.61815 4.2179 7.57009 4.31172L7.33929 4.75H4.39286C4.28866 4.75 4.18874 4.78951 4.11507 4.85984C4.04139 4.93016 4 5.02555 4 5.125V5.875C4 5.97446 4.04139 6.06984 4.11507 6.14017C4.18874 6.21049 4.28866 6.25 4.39286 6.25H14.6071C14.7113 6.25 14.8113 6.21049 14.8849 6.14017C14.9586 6.06984 15 5.97446 15 5.875V5.125C15 5.02555 14.9586 4.93016 14.8849 4.85984C14.8113 4.78951 14.7113 4.75 14.6071 4.75ZM5.30625 14.9453C5.32499 15.2309 5.45705 15.499 5.67555 15.6949C5.89405 15.8909 6.18257 16 6.48237 16H12.5176C12.8174 16 13.1059 15.8909 13.3245 15.6949C13.543 15.499 13.675 15.2309 13.6937 14.9453L14.2143 7H4.78571L5.30625 14.9453Z" fill="black"/>
</svg>
