<svg width="86" height="98" viewBox="0 0 86 98" fill="none" xmlns="http://www.w3.org/2000/svg">
<path d="M76.3825 48.885H29.0253V29.1974C29.0253 21.6355 35.0787 15.3531 42.6405 15.2767C50.2788 15.2003 56.523 21.4064 56.523 29.0255V32.0808C56.523 34.6206 58.5663 36.6638 61.106 36.6638H67.2166C69.7563 36.6638 71.7995 34.6206 71.7995 32.0808V29.0255C71.7995 12.9852 58.719 -0.0570989 42.6787 0.000188C26.6384 0.0574749 13.7488 13.2716 13.7488 29.312V48.885H9.1659C4.10556 48.885 0 52.9905 0 58.0509V88.6039C0 93.6642 4.10556 97.7698 9.1659 97.7698H76.3825C81.4428 97.7698 85.5484 93.6642 85.5484 88.6039V58.0509C85.5484 52.9905 81.4428 48.885 76.3825 48.885Z" fill="black"/>
</svg>
